<svg aria-hidden="true" style="position: absolute; width: 0; height: 0; overflow: hidden;" version="1.1" xmlns="http://www.w3.org/2000/svg" xmlns:xlink="http://www.w3.org/1999/xlink">
<defs>
<symbol id="icon-sun" viewBox="0 0 32 32">
<path d="M16 26c1.105 0 2 0.895 2 2v2c0 1.105-0.895 2-2 2s-2-0.895-2-2v-2c0-1.105 0.895-2 2-2zM16 6c-1.105 0-2-0.895-2-2v-2c0-1.105 0.895-2 2-2s2 0.895 2 2v2c0 1.105-0.895 2-2 2zM30 14c1.105 0 2 0.895 2 2s-0.895 2-2 2h-2c-1.105 0-2-0.895-2-2s0.895-2 2-2h2zM6 16c0 1.105-0.895 2-2 2h-2c-1.105 0-2-0.895-2-2s0.895-2 2-2h2c1.105 0 2 0.895 2 2zM25.899 23.071l1.414 1.414c0.781 0.781 0.781 2.047 0 2.828s-2.047 0.781-2.828 0l-1.414-1.414c-0.781-0.781-0.781-2.047 0-2.828s2.047-0.781 2.828 0zM6.101 8.929l-1.414-1.414c-0.781-0.781-0.781-2.047 0-2.828s2.047-0.781 2.828 0l1.414 1.414c0.781 0.781 0.781 2.047 0 2.828s-2.047 0.781-2.828 0zM25.899 8.929c-0.781 0.781-2.047 0.781-2.828 0s-0.781-2.047 0-2.828l1.414-1.414c0.781-0.781 2.047-0.781 2.828 0s0.781 2.047 0 2.828l-1.414 1.414zM6.101 23.071c0.781-0.781 2.047-0.781 2.828 0s0.781 2.047 0 2.828l-1.414 1.414c-0.781 0.781-2.047 0.781-2.828 0s-0.781-2.047 0-2.828l1.414-1.414z"></path>
<path d="M16 8c-4.418 0-8 3.582-8 8s3.582 8 8 8c4.418 0 8-3.582 8-8s-3.582-8-8-8zM16 21c-2.761 0-5-2.239-5-5s2.239-5 5-5 5 2.239 5 5-2.239 5-5 5z"></path>
</symbol>
<symbol id="icon-twitter" viewBox="0 0 32 32">
<path d="M32 7.075c-1.175 0.525-2.444 0.875-3.769 1.031 1.356-0.813 2.394-2.1 2.887-3.631-1.269 0.75-2.675 1.3-4.169 1.594-1.2-1.275-2.906-2.069-4.794-2.069-3.625 0-6.563 2.938-6.563 6.563 0 0.512 0.056 1.012 0.169 1.494-5.456-0.275-10.294-2.888-13.531-6.862-0.563 0.969-0.887 2.1-0.887 3.3 0 2.275 1.156 4.287 2.919 5.463-1.075-0.031-2.087-0.331-2.975-0.819 0 0.025 0 0.056 0 0.081 0 3.181 2.263 5.838 5.269 6.437-0.55 0.15-1.131 0.231-1.731 0.231-0.425 0-0.831-0.044-1.237-0.119 0.838 2.606 3.263 4.506 6.131 4.563-2.25 1.762-5.075 2.813-8.156 2.813-0.531 0-1.050-0.031-1.569-0.094 2.913 1.869 6.362 2.95 10.069 2.95 12.075 0 18.681-10.006 18.681-18.681 0-0.287-0.006-0.569-0.019-0.85 1.281-0.919 2.394-2.075 3.275-3.394z"></path>
</symbol>
<symbol id="icon-github" viewBox="0 0 32 32">
<path d="M16 0.395c-8.836 0-16 7.163-16 16 0 7.069 4.585 13.067 10.942 15.182 0.8 0.148 1.094-0.347 1.094-0.77 0-0.381-0.015-1.642-0.022-2.979-4.452 0.968-5.391-1.888-5.391-1.888-0.728-1.849-1.776-2.341-1.776-2.341-1.452-0.993 0.11-0.973 0.11-0.973 1.606 0.113 2.452 1.649 2.452 1.649 1.427 2.446 3.743 1.739 4.656 1.33 0.143-1.034 0.558-1.74 1.016-2.14-3.554-0.404-7.29-1.777-7.29-7.907 0-1.747 0.625-3.174 1.649-4.295-0.166-0.403-0.714-2.030 0.155-4.234 0 0 1.344-0.43 4.401 1.64 1.276-0.355 2.645-0.532 4.005-0.539 1.359 0.006 2.729 0.184 4.008 0.539 3.054-2.070 4.395-1.64 4.395-1.64 0.871 2.204 0.323 3.831 0.157 4.234 1.026 1.12 1.647 2.548 1.647 4.295 0 6.145-3.743 7.498-7.306 7.895 0.574 0.497 1.085 1.47 1.085 2.963 0 2.141-0.019 3.864-0.019 4.391 0 0.426 0.288 0.925 1.099 0.768 6.354-2.118 10.933-8.113 10.933-15.18 0-8.837-7.164-16-16-16z"></path>
</symbol>
<symbol id="icon-stars" viewBox="0 0 34 32">
<path  d="M26.631 1.429c-0.082-0.402-0.3-0.763-0.617-1.023s-0.715-0.401-1.125-0.401c-0.41 0-0.808 0.142-1.125 0.401s-0.535 0.621-0.617 1.023l-0.427 2.119c-0.069 0.344-0.238 0.66-0.486 0.909s-0.564 0.418-0.908 0.487l-2.119 0.423c-0.404 0.080-0.767 0.297-1.029 0.615s-0.404 0.717-0.404 1.129 0.143 0.811 0.404 1.129c0.261 0.318 0.625 0.536 1.029 0.615l2.119 0.423c0.345 0.069 0.661 0.238 0.909 0.486s0.418 0.565 0.486 0.909l0.423 2.119c0.080 0.404 0.297 0.767 0.615 1.029s0.717 0.404 1.129 0.404c0.412 0 0.811-0.143 1.129-0.404s0.536-0.625 0.615-1.029l0.423-2.119c0.069-0.344 0.238-0.661 0.486-0.909s0.565-0.418 0.909-0.486l2.119-0.423c0.404-0.080 0.767-0.297 1.029-0.615s0.404-0.717 0.404-1.129-0.143-0.811-0.404-1.129c-0.261-0.318-0.625-0.536-1.029-0.615l-2.119-0.423c-0.345-0.069-0.661-0.238-0.909-0.486s-0.418-0.565-0.486-0.909l-0.423-2.119h-0.002zM10.576 8.327c-0.118-0.354-0.344-0.663-0.647-0.881s-0.667-0.336-1.040-0.336c-0.373 0-0.737 0.118-1.040 0.336s-0.529 0.527-0.647 0.881l-1.214 3.646c-0.087 0.262-0.234 0.5-0.43 0.696s-0.434 0.342-0.696 0.43l-3.646 1.214c-0.354 0.118-0.663 0.344-0.881 0.647s-0.336 0.667-0.336 1.040c0 0.373 0.118 0.737 0.336 1.040s0.527 0.529 0.881 0.647l3.646 1.216c0.262 0.087 0.5 0.234 0.695 0.429s0.343 0.433 0.43 0.695l1.214 3.646c0.118 0.354 0.344 0.663 0.647 0.881s0.667 0.336 1.040 0.336c0.373 0 0.737-0.117 1.040-0.336s0.529-0.527 0.647-0.881l1.214-3.646c0.087-0.262 0.234-0.5 0.43-0.696s0.434-0.342 0.696-0.43l3.646-1.214c0.354-0.118 0.663-0.344 0.881-0.647s0.336-0.667 0.336-1.040c0-0.373-0.118-0.737-0.336-1.040s-0.527-0.529-0.881-0.647l-3.646-1.214c-0.262-0.087-0.5-0.234-0.696-0.43s-0.342-0.434-0.43-0.696l-1.212-3.646h-0.002zM23.020 22.549c-0.118-0.354-0.344-0.663-0.647-0.881s-0.667-0.336-1.040-0.336c-0.373 0-0.737 0.117-1.040 0.336s-0.529 0.527-0.647 0.881l-0.327 0.98c-0.087 0.262-0.234 0.5-0.429 0.695s-0.433 0.343-0.695 0.43l-0.98 0.325c-0.354 0.118-0.663 0.344-0.881 0.647s-0.336 0.667-0.336 1.040c0 0.373 0.118 0.737 0.336 1.040s0.527 0.529 0.881 0.647l0.98 0.325c0.262 0.087 0.5 0.234 0.696 0.43s0.342 0.434 0.43 0.696l0.325 0.98c0.118 0.354 0.344 0.663 0.647 0.881s0.667 0.336 1.040 0.336c0.373 0 0.737-0.117 1.040-0.336s0.529-0.527 0.647-0.881l0.327-0.98c0.087-0.262 0.234-0.5 0.429-0.695s0.433-0.343 0.695-0.43l0.98-0.325c0.354-0.118 0.663-0.344 0.881-0.647s0.336-0.667 0.336-1.040c0-0.373-0.117-0.737-0.336-1.040s-0.527-0.529-0.881-0.647l-0.98-0.327c-0.262-0.087-0.5-0.234-0.695-0.429s-0.343-0.433-0.43-0.695l-0.325-0.98z"></path>
</symbol>
<symbol id="icon-power" viewBox="0 0 32 32">
<path d="M12 0l-12 16h12l-8 16 28-20h-16l12-12z"></path>
</symbol>
<symbol id="icon-heart" viewBox="0 0 32 32">
<path d="M23.6 2c-3.363 0-6.258 2.736-7.599 5.594-1.342-2.858-4.237-5.594-7.601-5.594-4.637 0-8.4 3.764-8.4 8.401 0 9.433 9.516 11.906 16.001 21.232 6.13-9.268 15.999-12.1 15.999-21.232 0-4.637-3.763-8.401-8.4-8.401z"></path>
</symbol>
</defs>
</svg>
