<svg width="19" height="18" viewBox="0 0 19 18" fill="none" xmlns="http://www.w3.org/2000/svg">
<path d="M14.98 0.803993C14.9341 0.577936 14.8114 0.374698 14.6328 0.228718C14.4542 0.0827371 14.2307 0.00299072 14 0.00299072C13.7693 0.00299072 13.5457 0.0827371 13.3671 0.228718C13.1885 0.374698 13.0659 0.577936 13.02 0.803993L12.78 1.99599C12.7414 2.18962 12.6464 2.36749 12.5068 2.50719C12.3673 2.64688 12.1896 2.74216 11.996 2.78099L10.804 3.01899C10.5768 3.06391 10.3723 3.18627 10.2253 3.36517C10.0784 3.54408 9.998 3.76845 9.998 3.99999C9.998 4.23154 10.0784 4.45591 10.2253 4.63481C10.3723 4.81372 10.5768 4.93607 10.804 4.98099L11.996 5.21899C12.1898 5.25765 12.3677 5.35285 12.5074 5.49256C12.6471 5.63227 12.7423 5.81023 12.781 6.00399L13.019 7.19599C13.0639 7.42314 13.1863 7.62766 13.3652 7.77465C13.5441 7.92164 13.7684 8.00199 14 8.00199C14.2315 8.00199 14.4559 7.92164 14.6348 7.77465C14.8137 7.62766 14.9361 7.42314 14.981 7.19599L15.219 6.00399C15.2577 5.81023 15.3528 5.63227 15.4926 5.49256C15.6323 5.35285 15.8102 5.25765 16.004 5.21899L17.196 4.98099C17.4231 4.93607 17.6277 4.81372 17.7746 4.63481C17.9216 4.45591 18.002 4.23154 18.002 3.99999C18.002 3.76845 17.9216 3.54408 17.7746 3.36517C17.6277 3.18627 17.4231 3.06391 17.196 3.01899L16.004 2.78099C15.8102 2.74233 15.6323 2.64714 15.4926 2.50743C15.3528 2.36772 15.2577 2.18975 15.219 1.99599L14.981 0.803993H14.98ZM5.94899 4.68399C5.88277 4.48465 5.75545 4.31123 5.58511 4.18832C5.41477 4.06541 5.21005 3.99927 4.99999 3.99927C4.78994 3.99927 4.58522 4.06541 4.41487 4.18832C4.24453 4.31123 4.11722 4.48465 4.05099 4.68399L3.36799 6.73499C3.31892 6.88243 3.23616 7.0164 3.12628 7.12628C3.0164 7.23616 2.88243 7.31892 2.73499 7.36799L0.683992 8.05099C0.48465 8.11722 0.311225 8.24453 0.188319 8.41488C0.0654127 8.58522 -0.000732422 8.78994 -0.000732422 8.99999C-0.000732422 9.21005 0.0654127 9.41477 0.188319 9.58511C0.311225 9.75545 0.48465 9.88277 0.683992 9.94899L2.73499 10.633C2.88232 10.682 3.01622 10.7646 3.12609 10.8743C3.23596 10.984 3.31878 11.1177 3.36799 11.265L4.05099 13.316C4.11722 13.5153 4.24453 13.6888 4.41487 13.8117C4.58522 13.9346 4.78994 14.0007 4.99999 14.0007C5.21005 14.0007 5.41477 13.9346 5.58511 13.8117C5.75545 13.6888 5.88277 13.5153 5.94899 13.316L6.63199 11.265C6.68107 11.1176 6.76383 10.9836 6.8737 10.8737C6.98358 10.7638 7.11755 10.6811 7.26499 10.632L9.31599 9.94899C9.51533 9.88277 9.68876 9.75545 9.81166 9.58511C9.93457 9.41477 10.0007 9.21005 10.0007 8.99999C10.0007 8.78994 9.93457 8.58522 9.81166 8.41488C9.68876 8.24453 9.51533 8.11722 9.31599 8.05099L7.26499 7.36799C7.11755 7.31892 6.98358 7.23616 6.8737 7.12628C6.76383 7.0164 6.68107 6.88243 6.63199 6.73499L5.94999 4.68399H5.94899ZM12.949 12.684C12.8828 12.4847 12.7555 12.3112 12.5851 12.1883C12.4148 12.0654 12.21 11.9993 12 11.9993C11.7899 11.9993 11.5852 12.0654 11.4149 12.1883C11.2445 12.3112 11.1172 12.4847 11.051 12.684L10.867 13.235C10.818 13.3823 10.7354 13.5162 10.6257 13.6261C10.516 13.736 10.3822 13.8188 10.235 13.868L9.68399 14.051C9.48465 14.1172 9.31122 14.2445 9.18832 14.4149C9.06541 14.5852 8.99927 14.7899 8.99927 15C8.99927 15.21 9.06541 15.4148 9.18832 15.5851C9.31122 15.7555 9.48465 15.8828 9.68399 15.949L10.235 16.132C10.3824 16.1811 10.5164 16.2638 10.6263 16.3737C10.7362 16.4836 10.8189 16.6176 10.868 16.765L11.051 17.316C11.1172 17.5153 11.2445 17.6888 11.4149 17.8117C11.5852 17.9346 11.7899 18.0007 12 18.0007C12.21 18.0007 12.4148 17.9346 12.5851 17.8117C12.7555 17.6888 12.8828 17.5153 12.949 17.316L13.133 16.765C13.182 16.6177 13.2646 16.4838 13.3743 16.3739C13.484 16.264 13.6177 16.1812 13.765 16.132L14.316 15.949C14.5153 15.8828 14.6888 15.7555 14.8117 15.5851C14.9346 15.4148 15.0007 15.21 15.0007 15C15.0007 14.7899 14.9346 14.5852 14.8117 14.4149C14.6888 14.2445 14.5153 14.1172 14.316 14.051L13.765 13.867C13.6177 13.818 13.4838 13.7354 13.3739 13.6257C13.264 13.516 13.1812 13.3822 13.132 13.235L12.949 12.684Z" fill="#FFFF00"/>
</svg>
